<svg width="394" height="156" viewBox="0 0 394 156" fill="none" xmlns="http://www.w3.org/2000/svg">
<path d="M1.66061 23.8884C-1.53939 11.8884 5.49996 4.50478 12.5 2.5955C21.9999 0.00437617 339.661 -2.49788 364.661 4.8883C394 13.5566 394 53.182 394 78.5C394 100.5 389.5 147.336 364.661 152.5C343.5 156.899 123.661 154.5 123.661 154.5C123.661 154.5 71.4862 157 62.1606 136.5C51.2428 112.5 62.1606 50.3883 54.1606 39.3883C50.9606 34.9883 37.1606 36.3884 28.6606 36.8884C24.0155 37.2923 16.2622 36.8397 10.1606 33.7511C6.19176 31.742 2.92177 28.6177 1.66061 23.8884Z" fill="#F4DBB2"/>
</svg>
